<svg width="1725" height="96" fill="none" xmlns="http://www.w3.org/2000/svg"><path d="M1725 95.5v-31c0-11.046-8.95-20-20-20H283.177a20 20 0 0 1-18.087-11.465l-10.18-21.57A20 20 0 0 0 236.823 0H20C8.954 0 0 8.954 0 20v75.5h1725Z" fill="#fff"/><path d="M103.616 39.058c0 3.15 2.184 5.264 6.09 5.264 3.906 0 6.034-2.1 6.034-5.362 0-3.892-3.066-5.152-6.118-5.152-3.052 0-6.006 1.428-6.006 5.25Zm2.548.07c0-1.708 1.064-3.542 3.514-3.542 2.38 0 3.542 1.722 3.542 3.486 0 .686-.294 3.472-3.542 3.472-2.548 0-3.514-1.82-3.514-3.416ZM135.06 44v-9.884h-2.478v3.808h-5.964v-3.808h-2.478V44h2.478v-4.242h5.964V44h2.478Zm14.077 0-4.774-9.884h-2.674L136.915 44h2.702l.84-1.862h5.068l.84 1.862h2.772Zm-4.41-3.612h-3.472l1.75-3.864 1.722 3.864Zm14.994.252c-.336.728-1.106 1.876-3.122 1.876-2.142 0-3.584-1.54-3.584-3.444 0-1.47.882-3.444 3.514-3.444 1.526 0 2.38.7 2.968 1.596l2.702-.336c-.588-1.554-2.534-3.08-5.67-3.08-4.102 0-6.076 2.31-6.076 5.236 0 3.458 2.408 5.292 5.936 5.292 4.34 0 5.656-2.478 5.922-3.696h-2.59Z" fill="#141414"/></svg>