<svg width="460" height="208" fill="none" xmlns="http://www.w3.org/2000/svg"><path fill-rule="evenodd" clip-rule="evenodd" d="M459.5 194.971V40.499c0-6.743-5.466-12.21-12.209-12.21H127.305a12.209 12.209 0 0 1-11.611-8.435l-3.711-11.419A12.21 12.21 0 0 0 100.371 0H12.209C5.466 0 0 5.466 0 12.21v140.779h.002l.124 14.119c.056 6.337 4.931 11.511 11.128 12.055h97.205c5.289 0 9.977 3.405 11.611 8.435l3.712 11.419a12.211 12.211 0 0 0 9.043 8.163h314.466c6.743 0 12.209-5.466 12.209-12.209Z" fill="#8854F6"/></svg>