<svg width="520" height="72" fill="none" xmlns="http://www.w3.org/2000/svg"><path d="M3 69h514a3 3 0 0 1 3 3V47.414c0-8.284-6.716-15-15-15H186.896a15 15 0 0 1-14.722-12.124l-1.594-8.165A15.001 15.001 0 0 0 155.858 0H15C6.716 0 0 6.716 0 15v57a3 3 0 0 1 3-3Z" fill="#fff"/><path d="M61.484 28.37c0 2.476 1.716 4.137 4.785 4.137s4.741-1.65 4.741-4.213c0-3.058-2.409-4.048-4.807-4.048-2.398 0-4.719 1.122-4.719 4.125Zm2.002.056c0-1.342.836-2.783 2.761-2.783 1.87 0 2.783 1.353 2.783 2.739 0 .539-.231 2.728-2.783 2.728-2.002 0-2.761-1.43-2.761-2.684Zm22.704 3.828v-7.766h-1.947v2.992h-4.686v-2.992H77.61v7.766h1.947V28.92h4.686v3.333h1.947Zm11.06 0-3.75-7.766h-2.102l-3.75 7.766h2.122l.66-1.463h3.982l.66 1.463h2.178Zm-3.465-2.838h-2.728l1.375-3.036 1.353 3.036Zm11.781.198c-.264.572-.869 1.474-2.453 1.474-1.683 0-2.816-1.21-2.816-2.706 0-1.155.693-2.706 2.761-2.706 1.199 0 1.87.55 2.332 1.254l2.123-.264c-.462-1.221-1.991-2.42-4.455-2.42-3.223 0-4.774 1.815-4.774 4.114 0 2.717 1.892 4.158 4.664 4.158 3.41 0 4.444-1.947 4.653-2.904h-2.035Z" fill="#141414"/></svg>