<svg width="520" height="72" viewBox="0 0 520 72" fill="none" xmlns="http://www.w3.org/2000/svg">
<path d="M3.00001 69H517C518.657 69 520 70.3431 520 72V47.4145C520 39.1302 513.284 32.4145 505 32.4145H186.896C179.72 32.4145 173.549 27.3323 172.174 20.2896L170.58 12.1249C169.204 5.08217 163.033 0 155.858 0H15C6.71573 0 0 6.71573 0 15V36.2416V72C0 70.3431 1.34316 69 3.00001 69Z" fill="white"/>
<path d="M61.484 28.3709C61.484 30.8459 63.2 32.5069 66.269 32.5069C69.338 32.5069 71.01 30.8569 71.01 28.2939C71.01 25.2359 68.601 24.2459 66.203 24.2459C63.805 24.2459 61.484 25.3679 61.484 28.3709ZM63.486 28.4259C63.486 27.0839 64.322 25.6429 66.247 25.6429C68.117 25.6429 69.03 26.9959 69.03 28.3819C69.03 28.9209 68.799 31.1099 66.247 31.1099C64.245 31.1099 63.486 29.6799 63.486 28.4259ZM86.1901 32.2539V24.4879H84.2431V27.4799H79.5571V24.4879H77.6101V32.2539H79.5571V28.9209H84.2431V32.2539H86.1901ZM97.2503 32.2539L93.4993 24.4879H91.3983L87.6473 32.2539H89.7703L90.4303 30.7909H94.4123L95.0723 32.2539H97.2503ZM93.7853 29.4159H91.0573L92.4323 26.3799L93.7853 29.4159ZM105.566 29.6139C105.302 30.1859 104.697 31.0879 103.113 31.0879C101.43 31.0879 100.297 29.8779 100.297 28.3819C100.297 27.2269 100.99 25.6759 103.058 25.6759C104.257 25.6759 104.928 26.2259 105.39 26.9299L107.513 26.6659C107.051 25.4449 105.522 24.2459 103.058 24.2459C99.8353 24.2459 98.2843 26.0609 98.2843 28.3599C98.2843 31.0769 100.176 32.5179 102.948 32.5179C106.358 32.5179 107.392 30.5709 107.601 29.6139H105.566Z" fill="#141414"/>
</svg>
