<svg width="1725" height="96" viewBox="0 0 1725 96" fill="none" xmlns="http://www.w3.org/2000/svg">
<path d="M1725 95.5V64.5C1725 53.4543 1716.05 44.5 1705 44.5H283.177C275.438 44.5 268.393 40.0347 265.09 33.0355L254.91 11.4645C251.607 4.46529 244.562 0 236.823 0H20C8.9543 0 0 8.95429 0 20V57.1958V95.5H1725Z" fill="white"/>
<path d="M103.616 39.058C103.616 42.208 105.8 44.322 109.706 44.322C113.612 44.322 115.74 42.222 115.74 38.96C115.74 35.068 112.674 33.808 109.622 33.808C106.57 33.808 103.616 35.236 103.616 39.058ZM106.164 39.128C106.164 37.42 107.228 35.586 109.678 35.586C112.058 35.586 113.22 37.308 113.22 39.072C113.22 39.758 112.926 42.544 109.678 42.544C107.13 42.544 106.164 40.724 106.164 39.128ZM135.06 44V34.116H132.582V37.924H126.618V34.116H124.14V44H126.618V39.758H132.582V44H135.06ZM149.137 44L144.363 34.116H141.689L136.915 44H139.617L140.457 42.138H145.525L146.365 44H149.137ZM144.727 40.388H141.255L143.005 36.524L144.727 40.388ZM159.721 40.64C159.385 41.368 158.615 42.516 156.599 42.516C154.457 42.516 153.015 40.976 153.015 39.072C153.015 37.602 153.897 35.628 156.529 35.628C158.055 35.628 158.909 36.328 159.497 37.224L162.199 36.888C161.611 35.334 159.665 33.808 156.529 33.808C152.427 33.808 150.453 36.118 150.453 39.044C150.453 42.502 152.861 44.336 156.389 44.336C160.729 44.336 162.045 41.858 162.311 40.64H159.721Z" fill="#141414"/>
</svg>
