<svg width="1015" height="274" viewBox="0 0 1015 274" fill="none" xmlns="http://www.w3.org/2000/svg">
<path fill-rule="evenodd" clip-rule="evenodd" d="M1015 253.651V57.3659C1015 46.3202 1006.05 37.3659 995 37.3659H206.278C198.103 37.3659 190.75 32.3903 187.711 24.801L182.811 12.5649C179.772 4.97558 172.42 0 164.245 0H20C8.9543 0 0 8.95432 0 20V48.0263V202.073L0.00117493 202.073L0.161484 216.923C0.274036 227.349 8.34851 235.84 18.5694 236.645H177.407C185.582 236.645 192.934 241.621 195.973 249.21L200.873 261.446C203.435 267.842 209.06 272.382 215.659 273.651H995C1006.05 273.651 1015 264.697 1015 253.651Z" fill="#8854F6"/>
</svg>
