<svg width="460" height="208" viewBox="0 0 460 208" fill="none" xmlns="http://www.w3.org/2000/svg">
<path fill-rule="evenodd" clip-rule="evenodd" d="M459.5 194.971V40.4988C459.5 33.7558 454.034 28.2895 447.291 28.2895H127.305C122.016 28.2895 117.329 24.8841 115.694 19.8542L111.983 8.43535C110.348 3.40539 105.66 0 100.371 0H12.2093C5.46627 0 0 5.46627 0 12.2093V36.3605V152.989L0.00234222 152.989L0.126045 167.108C0.181564 173.445 5.05738 178.619 11.2543 179.163H108.459C113.748 179.163 118.436 182.568 120.07 187.598L123.782 199.017C125.146 203.214 128.635 206.279 132.825 207.18H447.291C454.034 207.18 459.5 201.714 459.5 194.971Z" fill="#8854F6"/>
</svg>
